<svg xmlns="http://www.w3.org/2000/svg" viewBox="0 0 1024 1024" width="1024" height="1024">
<!-- Іконка/фавікон Buoy: буй на хвилі на градієнті, без білої води (рішення 27.09.2026). -->
<defs><linearGradient id="bg" x1="0" y1="0" x2="0" y2="1"><stop offset="0" stop-color="#A9A6F0"/><stop offset="0.55" stop-color="#C3BBF5"/><stop offset="1" stop-color="#E4DAFA"/></linearGradient></defs>
<rect width="1024" height="1024" rx="0" fill="url(#bg)"/>
<g transform="translate(112.0 40) scale(2.0) rotate(22 200 220)">
 <path d="M200 60 C 190 60, 186 68, 186 78 L 186 96 L 214 96 L 214 78 C 214 68, 210 60, 200 60 Z" fill="#171436" opacity="0.85"/>
 <rect x="191" y="96" width="18" height="48" rx="4" fill="#5B56E0"/>
 <path d="M200 140 C 258 140, 272 190, 272 236 C 272 300, 244 340, 200 340 C 156 340, 128 300, 128 236 C 128 190, 142 140, 200 140 Z" fill="#807CF7"/>
 <path d="M129 214 L 271 214 L 272 236 L 128 236 Z" fill="#FFFFFF"/>
 <path d="M128 236 L 272 236 L 268 268 L 132 268 Z" fill="#BED2FB"/>
 <path d="M132 268 L 268 268 C 262 316, 236 340, 200 340 C 164 340, 138 316, 132 268 Z" fill="#DEC5FB"/>
 <rect x="191" y="338" width="18" height="34" rx="6" fill="#5B56E0"/>
 <path d="M158 160 C 150 178, 148 196, 150 210" fill="none" stroke="#FFFFFF" stroke-width="8" stroke-linecap="round" opacity="0.6"/>
</g>
<path d="M90 660 C 216.6 600, 343.2 720, 512.0 660 S 807.4 600, 934 660" fill="none" stroke="#807CF7" stroke-width="32" stroke-linecap="round"/>
</svg>